<?xml version="1.0" encoding="UTF-8" standalone="no"?>
<!-- Created with Inkscape (http://www.inkscape.org/) -->

<svg
   xmlns:dc="http://purl.org/dc/elements/1.1/"
   xmlns:cc="http://creativecommons.org/ns#"
   xmlns:rdf="http://www.w3.org/1999/02/22-rdf-syntax-ns#"
   xmlns:svg="http://www.w3.org/2000/svg"
   xmlns="http://www.w3.org/2000/svg"
   xmlns:sodipodi="http://sodipodi.sourceforge.net/DTD/sodipodi-0.dtd"
   xmlns:inkscape="http://www.inkscape.org/namespaces/inkscape"
   width="264.58322mm"
   height="297.29108mm"
   viewBox="0 0 264.58322 297.29108"
   version="1.1"
   id="svg823"
   inkscape:version="0.92.4 (5da689c313, 2019-01-14)"
   sodipodi:docname="EFSF_new.svg"
   inkscape:export-filename="C:\Users\User-PC\Pictures\Gundam emblems\EFSF_new.png"
   inkscape:export-xdpi="96"
   inkscape:export-ydpi="96">
  <defs
     id="defs817">
    <clipPath
       clipPathUnits="userSpaceOnUse"
       id="clipPath1372">
      <rect
         style="opacity:1;fill:#ff0000;fill-opacity:1;stroke:none;stroke-width:0.1;stroke-linecap:round;stroke-linejoin:round;stroke-miterlimit:4;stroke-dasharray:none;stroke-opacity:1;paint-order:normal"
         id="rect1374"
         width="190.88191"
         height="225.66676"
         x="223.92752"
         y="253.5023" />
    </clipPath>
  </defs>
  <sodipodi:namedview
     id="base"
     pagecolor="#ffffff"
     bordercolor="#666666"
     borderopacity="1.0"
     inkscape:pageopacity="0.0"
     inkscape:pageshadow="2"
     inkscape:zoom="0.7"
     inkscape:cx="36.532593"
     inkscape:cy="575.52422"
     inkscape:document-units="mm"
     inkscape:current-layer="layer1"
     showgrid="false"
     inkscape:window-width="1920"
     inkscape:window-height="1017"
     inkscape:window-x="-8"
     inkscape:window-y="-8"
     inkscape:window-maximized="1"
     fit-margin-top="0"
     fit-margin-left="0"
     fit-margin-right="0"
     fit-margin-bottom="0" />
  <metadata
     id="metadata820">
    <rdf:RDF>
      <cc:Work
         rdf:about="">
        <dc:format>image/svg+xml</dc:format>
        <dc:type
           rdf:resource="http://purl.org/dc/dcmitype/StillImage" />
        <dc:title></dc:title>
      </cc:Work>
    </rdf:RDF>
  </metadata>
  <g
     inkscape:label="Layer 1"
     inkscape:groupmode="layer"
     id="layer1"
     transform="translate(3.3120273,316.07061)">
    <path
       style="fill:#fed100;fill-opacity:1;stroke:none;stroke-width:0.26458332px;stroke-linecap:butt;stroke-linejoin:miter;stroke-opacity:1"
       d="m 128.97876,-316.07061 c 1.2e-4,0 5.5e-4,0 5.5e-4,0.003 6.48307,38.61637 12.59218,77.2801 15.31713,116.37805 39.72241,3.81598 79.83352,7.22352 116.97474,13.74798 -37.06661,6.51134 -77.09104,9.91835 -116.73521,13.72502 l 0.003,0.36289 c -0.59538,9.87937 -1.25624,19.63949 -1.98582,29.31469 v 5.5e-4 c -0.24318,3.2248 -0.49452,6.44006 -0.75302,9.64724 v 5.5e-4 c -1.5364,19.0617 -3.34779,37.833582 -5.45114,56.581145 45.3734,-9.264295 97.7233,-32.012105 121.54169,-79.641335 -5.23294,69.882583 -97.22734,108.419171 -125.95932,115.764877 -0.52131,3.940801 -1.05358,7.887278 -1.60214,11.843206 v 7.14e-4 c -0.44088,3.179459 -0.89098,6.364844 -1.3497,9.556889 -1.4e-4,0.0011 1.4e-4,0.0014 0,0.0028 v 0.0028 c 0,-0.0014 -5.5e-4,-0.0028 -5.5e-4,-0.0028 -1.3e-4,-0.0014 1.4e-4,-0.0014 0,-0.0028 -0.9175,-6.384563 -1.79902,-12.741593 -2.64561,-19.080789 -0.10336,-0.773986 -0.2039,-1.546528 -0.30622,-2.320014 C 97.294413,-47.532083 5.3014327,-86.06878 0.0685227,-155.95083 c 23.8182803,47.629 76.1677403,70.376963 121.5409073,79.641467 -2.10343,-18.747467 -3.91475,-37.519347 -5.45115,-56.581137 -0.25852,-3.20744 -0.50911,-6.42363 -0.7523,-9.64869 -0.72958,-9.6752 -1.39044,-19.43532 -1.98582,-29.31468 l 0.003,-0.3629 c -39.644157,-3.80667 -79.668587,-7.21298 -116.7351873,-13.7243 37.1412103,-6.52444 77.2523203,-9.93272 116.9747273,-13.7487 2.725,-39.09866 8.83321,-77.76313 15.31641,-116.38021 z"
       id="path1397"
       inkscape:connector-curvature="0" />
  </g>
</svg>
